<svg xmlns="http://www.w3.org/2000/svg" viewBox="0 0 213.93 213.92"><defs><style>.cls-1{fill:#fff;}</style></defs><g id="Layer_2" data-name="Layer 2"><g id="Layer_1-2" data-name="Layer 1"><path class="cls-1" d="M107,10.59A96.38,96.38,0,1,0,203.34,107,96.49,96.49,0,0,0,107,10.59Zm0,203.33A107,107,0,1,1,213.93,107,107.08,107.08,0,0,1,107,213.92Z"/><path class="cls-1" d="M107,39.55A67.42,67.42,0,1,0,174.38,107,67.5,67.5,0,0,0,107,39.55ZM107,185a78,78,0,1,1,78-78A78.09,78.09,0,0,1,107,185Z"/><path class="cls-1" d="M107,67.69A39.28,39.28,0,1,0,146.25,107,39.32,39.32,0,0,0,107,67.69Zm0,89.14A49.87,49.87,0,1,1,156.84,107,49.93,49.93,0,0,1,107,156.83Z"/><path class="cls-1" d="M119.35,105.9c-.87,16.3-24.43,16.31-25.31,0s24.44-16.24,25.31,0c.35,6.36,10.28,6.4,9.93,0-.68-12.77-9.82-21.9-22.59-22.59S84.75,94.16,84.11,105.9c-.68,12.73,10.85,21.94,22.58,22.58,12.74.68,22-10.85,22.59-22.58C129.63,99.49,119.7,99.53,119.35,105.9Z"/></g></g></svg>