<svg xmlns="http://www.w3.org/2000/svg" viewBox="0 0 26.98 35.98"><defs><style>.cls-1{fill:#f96;}</style></defs><g id="Layer_2" data-name="Layer 2"><g id="Layer_1-2" data-name="Layer 1"><path id="iconmonstr-flask-21" class="cls-1" d="M26.62,30.73,21,19c-1.56-3.28-3-6.87-3-10.5V4.5H15c0,5.08-.12,7.78,3.31,15.74L23.92,32a.67.67,0,0,1-.3.89.64.64,0,0,1-.27.07H21.48L14.17,18H9.69C12.39,11.72,12,9.05,12,4.5H9V8.45C9,12.09,7.53,15.67,6,19L.36,30.73A3.59,3.59,0,0,0,0,32.31,3.65,3.65,0,0,0,3.63,36H23.35a3.67,3.67,0,0,0,3.27-5.25ZM6.75,33A2.25,2.25,0,1,1,9,30.73H9A2.25,2.25,0,0,1,6.75,33Zm3.75-6a1.5,1.5,0,1,1,1.5-1.5A1.5,1.5,0,0,1,10.5,27Zm4.5,4.5A1.5,1.5,0,1,1,16.5,30a1.5,1.5,0,0,1-1.5,1.5h0ZM7.5,1.5A1.5,1.5,0,0,1,9,0h9a1.5,1.5,0,0,1,0,3H9A1.5,1.5,0,0,1,7.5,1.5Z"/></g></g></svg>