<svg id="Layer_1" data-name="Layer 1" xmlns="http://www.w3.org/2000/svg" viewBox="0 0 483.97 131.25"><defs><style>.cls-1{fill:#ea5dff;}.cls-2{fill:#7388e0;}.cls-3{fill:#FF9966;}.cls-4{fill:#c42ac6;}.cls-5{isolation:isolate;}.cls-6,.cls-7{fill:#fff;}.cls-8{fill:#FF9966;}.cls-7{font-size:20.83px;font-family:ArialMT, Arial;}</style></defs><path class="cls-1" d="M63.78,78.69a29.12,29.12,0,1,0,0,46.79l40.39-23.4ZM53.59,113.8a14.47,14.47,0,0,1-19-1.39,14.65,14.65,0,0,1,0-20.66,14.48,14.48,0,0,1,19-1.39l20.19,11.72Z"/><path class="cls-2" d="M113,8.54A29,29,0,0,0,75.11,5.77L34.72,29.17,75.11,52.56A29.12,29.12,0,0,0,113,8.54Zm-8.77,31a14.48,14.48,0,0,1-19,1.39L65.1,29.17,85.3,17.45a14.47,14.47,0,0,1,19,1.39A14.65,14.65,0,0,1,104.25,39.5Z"/><path class="cls-3" d="M46.42,32.16a29.12,29.12,0,1,0,0,46.79L86.81,55.56ZM36.23,67.28a14.48,14.48,0,0,1-18.95-1.39,14.65,14.65,0,0,1,0-20.66,14.46,14.46,0,0,1,18.95-1.39L56.42,55.56Z"/><path class="cls-4" d="M130.38,55.07A29,29,0,0,0,92.47,52.3L52.08,75.69l40.39,23.4a29.12,29.12,0,0,0,37.91-44ZM121.61,86a14.46,14.46,0,0,1-19,1.39L82.47,75.69,102.66,64a14.48,14.48,0,0,1,19,1.39A14.65,14.65,0,0,1,121.61,86Z"/><g class="cls-5"><path class="cls-6" d="M155.93,93.4V36.7h24a16.12,16.12,0,0,1,7.23,1.64,18.63,18.63,0,0,1,5.71,4.31,20.53,20.53,0,0,1,3.76,6.07A18.34,18.34,0,0,1,198,55.55a19.77,19.77,0,0,1-1.27,7,19.53,19.53,0,0,1-3.6,6,17.82,17.82,0,0,1-5.59,4.23,16.24,16.24,0,0,1-7.19,1.6H167v19Zm11-28.67h12.78a6.31,6.31,0,0,0,5.07-2.47,10.29,10.29,0,0,0,2-6.71,10.91,10.91,0,0,0-.64-3.87,9.3,9.3,0,0,0-1.67-2.92,6.77,6.77,0,0,0-2.44-1.8,7.13,7.13,0,0,0-2.83-.6H167Z"/><path class="cls-6" d="M195.7,93.4l22.36-56.7H227l22.28,56.7H237.62l-5.19-14.13H212.55L207.36,93.4Zm26.83-44.8-8.15,22.92h16.06Z"/><path class="cls-6" d="M255.35,93.4V36.7h11v47h28.91V93.4Z"/></g><text class="cls-7" transform="translate(296.72 93.4)"> </text><g class="cls-5"><path class="cls-8" d="M304.45,75.21A19.77,19.77,0,0,1,305.77,68a17.78,17.78,0,0,1,3.82-6,18.68,18.68,0,0,1,6-4.09,20,20,0,0,1,8-1.53A19.15,19.15,0,0,1,333.79,59a16.45,16.45,0,0,1,6.29,6.73L331,68.47a8.26,8.26,0,0,0-3.12-3.09,8.75,8.75,0,0,0-4.31-1.07,8.91,8.91,0,0,0-3.75.79,9.34,9.34,0,0,0-3,2.23,10.13,10.13,0,0,0-2,3.43,12.94,12.94,0,0,0-.73,4.45,12.39,12.39,0,0,0,.76,4.44,11.2,11.2,0,0,0,2.05,3.48,9,9,0,0,0,3,2.25,8.73,8.73,0,0,0,3.68.8,9,9,0,0,0,4.62-1.25,7,7,0,0,0,2.95-3.05l9.1,2.77A15.3,15.3,0,0,1,334,91.46a19.42,19.42,0,0,1-10.35,2.64,20,20,0,0,1-8-1.53,18.06,18.06,0,0,1-9.89-10.17A19.54,19.54,0,0,1,304.45,75.21Z"/><path class="cls-8" d="M355.84,94.1a13.78,13.78,0,0,1-4.93-.87,11.87,11.87,0,0,1-4-2.43,11.23,11.23,0,0,1-2.6-3.65,10.94,10.94,0,0,1-.94-4.58,10.05,10.05,0,0,1,1.15-4.76,10.9,10.9,0,0,1,3.19-3.71,15.89,15.89,0,0,1,4.9-2.4,21.31,21.31,0,0,1,6.25-.87,26.84,26.84,0,0,1,4.76.42,19.57,19.57,0,0,1,4.13,1.18V70.35a7.33,7.33,0,0,0-2.05-5.56c-1.37-1.29-3.39-1.94-6.08-1.94a16,16,0,0,0-5.69,1,26.53,26.53,0,0,0-5.7,3L345.43,61a26.85,26.85,0,0,1,15.13-4.65q7.86,0,12.19,3.85t4.34,11.15V82.71a3.1,3.1,0,0,0,.56,2.08,2.7,2.7,0,0,0,1.94.7V93.4a18.74,18.74,0,0,1-2.46.38c-.77.07-1.43.11-2,.11a6.47,6.47,0,0,1-4-1.22,5,5,0,0,1-1.74-3.09l-.2-2a16.15,16.15,0,0,1-5.91,4.86A17,17,0,0,1,355.84,94.1Zm2.64-6.81a12.25,12.25,0,0,0,4.48-.83,8.27,8.27,0,0,0,3.3-2.22,3.35,3.35,0,0,0,1.53-2.64V77.43a23.14,23.14,0,0,0-3.61-1,19.88,19.88,0,0,0-3.75-.38,10,10,0,0,0-5.91,1.63,5,5,0,0,0-.48,8.06A6.54,6.54,0,0,0,358.48,87.29Z"/><path class="cls-8" d="M407.65,65.07a18.41,18.41,0,0,0-7.57,1.63,9.56,9.56,0,0,0-4.79,4.69v22H386V57h8.54v7.78a16.89,16.89,0,0,1,4.9-6,10.33,10.33,0,0,1,6.35-2.29c.51,0,.89,0,1.15,0s.5.06.73.11Z"/><path class="cls-8" d="M429.8,94.1a20.11,20.11,0,0,1-7.92-1.5,17.82,17.82,0,0,1-9.89-10,19,19,0,0,1-1.36-7.15A20.24,20.24,0,0,1,412,68.09a17.94,17.94,0,0,1,3.82-6,18.19,18.19,0,0,1,6.08-4.13,20.19,20.19,0,0,1,8-1.53,19.71,19.71,0,0,1,7.95,1.53,18.27,18.27,0,0,1,6,4.09,17.3,17.3,0,0,1,3.75,6,19.82,19.82,0,0,1,1.29,7.08c0,.6,0,1.18,0,1.74a7,7,0,0,1-.17,1.38H420.49A10.7,10.7,0,0,0,421.54,82a9.35,9.35,0,0,0,5.14,4.66,9.91,9.91,0,0,0,3.47.62,10.74,10.74,0,0,0,5.24-1.35,7.22,7.22,0,0,0,3.37-3.58l8,2.22a16.18,16.18,0,0,1-6.42,6.84A19.85,19.85,0,0,1,429.8,94.1Zm9.44-21.95a9.62,9.62,0,0,0-3-6.56,9.45,9.45,0,0,0-12.88,0,9.45,9.45,0,0,0-2,2.84,10,10,0,0,0-.93,3.68Z"/><path class="cls-8" d="M468.9,94.1a32.4,32.4,0,0,1-4.62-.35,40.18,40.18,0,0,1-4.69-1,33.1,33.1,0,0,1-4.37-1.53,20.87,20.87,0,0,1-3.68-2l3.75-6.32q6.93,4.52,13.4,4.51a8.65,8.65,0,0,0,4.58-1,3.34,3.34,0,0,0,1.67-3,3.06,3.06,0,0,0-2-2.88,37.75,37.75,0,0,0-6.63-2,54.35,54.35,0,0,1-6-1.73,14.67,14.67,0,0,1-4-2.09A7.09,7.09,0,0,1,454,71.94a8.52,8.52,0,0,1-.7-3.61,10.81,10.81,0,0,1,4.2-8.78,14.43,14.43,0,0,1,4.65-2.4,19.64,19.64,0,0,1,5.8-.83,25.63,25.63,0,0,1,7.75,1.21,31,31,0,0,1,7.18,3.3l-3.81,5.77a25.19,25.19,0,0,0-5.77-2.82,17.89,17.89,0,0,0-5.42-.86,8.36,8.36,0,0,0-4.2,1A3.34,3.34,0,0,0,462,67a2.83,2.83,0,0,0,1.63,2.71,30.7,30.7,0,0,0,5.8,1.88c2.59.65,4.8,1.29,6.63,1.94a18.84,18.84,0,0,1,4.52,2.22,7.84,7.84,0,0,1,2.57,2.89,8.84,8.84,0,0,1,.8,3.92,10.37,10.37,0,0,1-4.1,8.44,14.06,14.06,0,0,1-4.76,2.29A22.78,22.78,0,0,1,468.9,94.1Z"/></g></svg>