<svg xmlns="http://www.w3.org/2000/svg" viewBox="0 0 138.89 131.25"><defs><style>.cls-1{fill:#ea5dff;}.cls-2{fill:#7388e0;}.cls-3{fill:#FF9966;}.cls-4{fill:#c42ac6;}</style></defs><g id="Layer_2" data-name="Layer 2"><g id="Layer_1-2" data-name="Layer 1"><path class="cls-1" d="M63.78,78.69a29.12,29.12,0,1,0,0,46.79l40.39-23.4ZM53.59,113.8a14.47,14.47,0,0,1-19-1.39,14.65,14.65,0,0,1,0-20.66,14.48,14.48,0,0,1,19-1.39l20.19,11.72Z"/><path class="cls-2" d="M113,8.54A29,29,0,0,0,75.11,5.77L34.72,29.17,75.11,52.56A29.12,29.12,0,0,0,113,8.54Zm-8.77,31a14.48,14.48,0,0,1-19,1.39L65.1,29.17,85.3,17.45a14.47,14.47,0,0,1,19,1.39A14.65,14.65,0,0,1,104.25,39.5Z"/><path class="cls-3" d="M46.42,32.16a29.12,29.12,0,1,0,0,46.79L86.81,55.56ZM36.23,67.28a14.48,14.48,0,0,1-18.95-1.39,14.65,14.65,0,0,1,0-20.66,14.46,14.46,0,0,1,18.95-1.39L56.42,55.56Z"/><path class="cls-4" d="M130.38,55.07A29,29,0,0,0,92.47,52.3L52.08,75.69l40.39,23.4a29.12,29.12,0,0,0,37.91-44ZM121.61,86a14.46,14.46,0,0,1-19,1.39L82.47,75.69,102.66,64a14.48,14.48,0,0,1,19,1.39A14.65,14.65,0,0,1,121.61,86Z"/></g></g></svg>