<svg xmlns="http://www.w3.org/2000/svg" viewBox="0 0 159.46 127.57"><defs><style>.cls-1{fill:#f96;}</style></defs><g id="Layer_2" data-name="Layer 2"><g id="Layer_1-2" data-name="Layer 1"><path id="iconmonstr-quote-left-filled" class="cls-1" d="M153.89,0a5.4,5.4,0,0,1,5.57,5.21v.08c0,2-1.16,4.11-4,5.6-14.26,7.56-30.76,33.69-30.76,49.81,24-.73,34.49,20.59,34.49,34,0,16-13.86,32.92-34.35,32.92-25.83,0-38.51-20.3-38.51-42.31C86.37,37.58,140.86,0,153.89,0ZM67.51,0a5.41,5.41,0,0,1,5.58,5.23v.06c0,2-1.16,4.11-4,5.6C54.87,18.44,38.37,44.58,38.37,60.7c24-.73,34.49,20.59,34.49,34,0,16-13.87,32.92-34.35,32.92C12.67,127.57,0,107.26,0,85.26,0,37.58,54.48,0,67.51,0Z"/></g></g></svg>