<svg xmlns="http://www.w3.org/2000/svg" viewBox="0 0 41.44 36.16"><defs><style>.cls-1{fill:#f96;}</style></defs><g id="Layer_2" data-name="Layer 2"><g id="Layer_1-2" data-name="Layer 1"><g id="OrYf7z"><g id="Group_8" data-name="Group 8"><g id="Group_7" data-name="Group 7"><path id="Path_19" data-name="Path 19" class="cls-1" d="M32.06,14.62l2.87,1a14.21,14.21,0,0,1-3.18,7.64c.57.53,1.12,1,1.64,1.53l6.27,6.35a2.42,2.42,0,0,1,.78,2,4.84,4.84,0,0,1-3.15,3,2.47,2.47,0,0,1-2.25-1c-2.16-2.79-4.33-5.56-6.51-8.34l-.34-.41A14.05,14.05,0,0,1,14,26.58a13.54,13.54,0,0,1-6.74-8.42A14.2,14.2,0,0,1,16.88.57L17.12.5A14.11,14.11,0,0,1,34.24,9.69c-.15,0-.29,0-.41-.09-.32-.1-.63-.21-.95-.3C31.5,8.92,30.17,8.47,29.51,7,26.44,3.53,22.59,2.17,18.1,3.31A10.74,10.74,0,0,0,9.8,12a11.23,11.23,0,0,0,8.85,13.19l.51.08a11.36,11.36,0,0,0,12.78-9.74,1.36,1.36,0,0,0,0-.2C32,15.15,32,14.93,32.06,14.62Z"/><path id="Path_20" data-name="Path 20" class="cls-1" d="M11.43,12.55l2.77,2.52L16.32,17A1.32,1.32,0,0,0,18,16.83c1.38-2,2.77-4,4.13-6.1a.9.9,0,0,0,.08-.7A2.5,2.5,0,0,1,23.68,7a2.43,2.43,0,0,1,3.06,1.47,1,1,0,0,0,.66.65c3.22,1.07,6.44,2.17,9.66,3.23a1,1,0,0,0,.69-.11,2.37,2.37,0,0,1,3.63,2.49,2.4,2.4,0,0,1-4.63.27.85.85,0,0,0-.58-.58l-9.66-3.24a1.3,1.3,0,0,0-.7.11c-.35.11-.69.38-1,.37a1.11,1.11,0,0,0-1,.65c-1.27,1.9-2.55,3.8-3.86,5.68a.93.93,0,0,0-.14,1,2.35,2.35,0,0,1-.81,2.53,2.22,2.22,0,0,1-2.54.28,2.09,2.09,0,0,1-1.32-2.17,1.18,1.18,0,0,0-.47-1.09c-1-.89-2-1.8-3-2.73a1.5,1.5,0,0,1-.4-.85c0-.76,0-1.53,0-2.29Zm27.67.33a1.32,1.32,0,0,0-1.4,1.22v0a1.31,1.31,0,0,0,1.24,1.38h0a1.32,1.32,0,0,0,.15-2.63ZM23.17,9.18a1.32,1.32,0,0,0,1.26,1.38h0a1.32,1.32,0,0,0,.1-2.63h-.05a1.32,1.32,0,0,0-1.36,1.26ZM17.4,20.88a1.26,1.26,0,0,0,1.35-1.16v-.13a1.26,1.26,0,0,0-1.2-1.32h-.06a1.23,1.23,0,0,0-1.34,1.13.86.86,0,0,0,0,.16,1.26,1.26,0,0,0,1.2,1.32Z"/><path id="Path_21" data-name="Path 21" class="cls-1" d="M5.53,10.16C4.85,9.55,4.22,9,3.6,8.42a.86.86,0,0,0-.83-.26A2.36,2.36,0,0,1,0,6.24,1.23,1.23,0,0,1,0,6,2.44,2.44,0,0,1,2.27,3.42h.07a2.37,2.37,0,0,1,2.43,2.3V6a.77.77,0,0,0,.36.84,1.59,1.59,0,0,1,1,2,1.75,1.75,0,0,1-.26.46A4.14,4.14,0,0,0,5.53,10.16Zm-3.12-3A1.28,1.28,0,0,0,3.72,5.89v0A1.27,1.27,0,0,0,2.51,4.52H2.4A1.26,1.26,0,0,0,1.09,5.73V5.8A1.28,1.28,0,0,0,2.31,7.13Z"/></g></g></g></g></g></svg>