<svg xmlns="http://www.w3.org/2000/svg" viewBox="0 0 50.69 34.17"><defs><style>.cls-1{fill:#f96;}</style></defs><g id="Layer_2" data-name="Layer 2"><g id="Layer_1-2" data-name="Layer 1"><g id="S4DuKa"><g id="Group_6" data-name="Group 6"><g id="Group_5" data-name="Group 5"><path id="Path_13" data-name="Path 13" class="cls-1" d="M25.35,18.29a38,38,0,0,1,4.27,0,8,8,0,0,1,7.17,8.1c0,1.66,0,3.33,0,5a.81.81,0,0,1-.65.9A32.22,32.22,0,0,1,21.75,34a29.51,29.51,0,0,1-7.3-1.66.81.81,0,0,1-.64-.91c0-1.87-.06-3.75.06-5.62A8.09,8.09,0,0,1,22,18.22c1.14,0,2.27,0,3.4,0Z"/><path id="Path_14" data-name="Path 14" class="cls-1" d="M11.79,29.28A30.8,30.8,0,0,1,.08,27.23a62.31,62.31,0,0,1,.05-7.1,7.69,7.69,0,0,1,7.16-6.69c2.84-.16,5.69,0,8.54,0a2,2,0,0,1,2.24,1.46,7.41,7.41,0,0,0,1,1.67,10.65,10.65,0,0,0-6,4.85C11.64,23.86,11.77,26.53,11.79,29.28Z"/><path id="Path_15" data-name="Path 15" class="cls-1" d="M38.82,29.21V26.76a10.13,10.13,0,0,0-7-10l-.27-.12c.47-.85.91-1.7,1.4-2.52a1,1,0,0,1,.57-.37,17.46,17.46,0,0,1,2.5-.33c2.05,0,4.11,0,6.17,0a8.14,8.14,0,0,1,8.46,7.82c0,.23,0,.45,0,.67,0,1.58,0,3.17,0,4.75a.7.7,0,0,1-.53.81,31.34,31.34,0,0,1-10.93,1.88Z"/><path id="Path_16" data-name="Path 16" class="cls-1" d="M31.49,11a6.19,6.19,0,0,1-6.16,6.21h0a6.19,6.19,0,0,1-6.19-6.18h0a6.17,6.17,0,0,1,6.18-6.17h0A6.18,6.18,0,0,1,31.49,11Z"/><path id="Path_17" data-name="Path 17" class="cls-1" d="M11.37,12.36a6.18,6.18,0,1,1,6.24-6.21.27.27,0,0,1,0,.09,6.13,6.13,0,0,1-6.15,6.12Z"/><path id="Path_18" data-name="Path 18" class="cls-1" d="M39.19,12.36A6.14,6.14,0,0,1,33,6.27V6.19A6.18,6.18,0,0,1,39.18,0h0a6.18,6.18,0,0,1,0,12.36Z"/></g></g></g></g></g></svg>